<svg width="71" height="77" viewBox="0 0 71 77" fill="none" xmlns="http://www.w3.org/2000/svg">
<g id="&#208;&#161;&#208;&#187;&#208;&#190;&#208;&#185;_x0020_1">
<path id="Vector" fill-rule="evenodd" clip-rule="evenodd" d="M1.42157 14.0441L40.768 1.69116V75.8088H1.42157V14.0441Z" stroke="#EF7F1A" stroke-width="1.83007" stroke-miterlimit="22.9256" stroke-linecap="round" stroke-linejoin="round"/>
<path id="Vector_2" fill-rule="evenodd" clip-rule="evenodd" d="M40.3105 22.2793H69.5915V75.8087H40.3105V22.2793Z" stroke="#EF7F1A" stroke-width="1.83007" stroke-miterlimit="22.9256" stroke-linecap="round" stroke-linejoin="round"/>
<path id="Vector_3" d="M65.4739 9.46899H40.768V22.2795H65.4739V9.46899Z" stroke="#EF7F1A" stroke-width="1.83007" stroke-miterlimit="22.9256" stroke-linecap="round" stroke-linejoin="round"/>
<path id="Vector_4" d="M51.2908 2.6062V9.46895" stroke="#EF7F1A" stroke-width="1.83007" stroke-miterlimit="22.9256" stroke-linecap="round" stroke-linejoin="round"/>
<path id="Vector_5" d="M61.8137 12.2141H43.5131V18.6193H61.8137V12.2141Z" stroke="#EF7F1A" stroke-width="0.915033" stroke-miterlimit="22.9256" stroke-linecap="round" stroke-linejoin="round"/>
<path id="Vector_6" d="M66.3889 25.4819H40.3105V30.5146H66.3889V25.4819Z" stroke="#EF7F1A" stroke-width="0.915033" stroke-miterlimit="22.9256" stroke-linecap="round" stroke-linejoin="round"/>
<path id="Vector_7" d="M66.3889 33.7173H40.3105V38.75H66.3889V33.7173Z" stroke="#EF7F1A" stroke-width="0.915033" stroke-miterlimit="22.9256" stroke-linecap="round" stroke-linejoin="round"/>
<path id="Vector_8" d="M66.3889 41.9526H40.3105V46.9853H66.3889V41.9526Z" stroke="#EF7F1A" stroke-width="0.915033" stroke-miterlimit="22.9256" stroke-linecap="round" stroke-linejoin="round"/>
<path id="Vector_9" d="M66.3889 50.1879H40.3105V55.2205H66.3889V50.1879Z" stroke="#EF7F1A" stroke-width="0.915033" stroke-miterlimit="22.9256" stroke-linecap="round" stroke-linejoin="round"/>
<path id="Vector_10" d="M66.3889 58.4232H40.3105V63.4559H66.3889V58.4232Z" stroke="#EF7F1A" stroke-width="0.915033" stroke-miterlimit="22.9256" stroke-linecap="round" stroke-linejoin="round"/>
<path id="Vector_11" d="M66.3889 66.6584H40.3105V71.6911H66.3889V66.6584Z" stroke="#EF7F1A" stroke-width="0.915033" stroke-miterlimit="22.9256" stroke-linecap="round" stroke-linejoin="round"/>
<path id="Vector_12" d="M10.5719 11.2991V75.8089" stroke="#EF7F1A" stroke-width="0.915033" stroke-miterlimit="22.9256" stroke-linecap="round" stroke-linejoin="round"/>
<path id="Vector_13" d="M20.1797 8.09644V75.8089" stroke="#EF7F1A" stroke-width="0.915033" stroke-miterlimit="22.9256" stroke-linecap="round" stroke-linejoin="round"/>
<path id="Vector_14" d="M30.2451 4.8938V75.8088" stroke="#EF7F1A" stroke-width="0.915033" stroke-miterlimit="22.9256" stroke-linecap="round" stroke-linejoin="round"/>
<path id="Vector_15" d="M1.42157 21.3643H40.768" stroke="#EF7F1A" stroke-width="0.915033" stroke-miterlimit="22.9256" stroke-linecap="round" stroke-linejoin="round"/>
<path id="Vector_16" d="M1.42157 40.1226H40.768" stroke="#EF7F1A" stroke-width="0.915033" stroke-miterlimit="22.9256" stroke-linecap="round" stroke-linejoin="round"/>
<path id="Vector_17" d="M1.42157 57.5082H40.768" stroke="#EF7F1A" stroke-width="0.915033" stroke-miterlimit="22.9256" stroke-linecap="round" stroke-linejoin="round"/>
</g>
</svg>
